<?xml version="1.0" encoding="UTF-8"?>
<svg width="96px" height="96px" viewBox="0 0 96 96" version="1.1" xmlns="http://www.w3.org/2000/svg" xmlns:xlink="http://www.w3.org/1999/xlink">
    <!-- Generator: Sketch 59.1 (86144) - https://sketch.com -->
    <title>icon-linkedin</title>
    <desc>Created with Sketch.</desc>
    <g id="icon-linkedin" stroke="none" stroke-width="1" fill="none" fill-rule="evenodd">
        <path d="M75.7864583,16 L21.5520833,16 C18.5898438,16 16,18.1328125 16,21.0611979 L16,75.4140625 C16,78.359375 18.5898438,80.9830729 21.5520833,80.9830729 L75.7695313,80.9830729 C78.7486979,80.9830729 80.9831677,78.3424479 80.9831677,75.4140625 L80.9831677,21.0611979 C81,18.1328125 78.7486979,16 75.7864583,16 Z M36.1432292,70.1666667 L26.8333333,70.1666667 L26.8333333,41.2213542 L36.1432292,41.2213542 L36.1432292,70.1666667 Z M31.8098958,36.8203125 L31.7421875,36.8203125 C28.7630208,36.8203125 26.8333333,34.6028646 26.8333333,31.8268229 C26.8333333,29 28.8138021,26.8333333 31.8606771,26.8333333 C34.9075521,26.8333333 36.7695312,28.9830729 36.8372396,31.8268229 C36.8372396,34.6028646 34.9075521,36.8203125 31.8098958,36.8203125 Z M70.1666667,70.1666667 L60.8567708,70.1666667 L60.8567708,54.3398438 C60.8567708,50.5481771 59.5026042,47.9583333 56.1341146,47.9583333 C53.5611979,47.9583333 52.0377604,49.7018229 51.3606771,51.3945312 C51.1067708,52.0039063 51.0390625,52.8333333 51.0390625,53.6796875 L51.0390625,70.1666667 L41.7291667,70.1666667 L41.7291667,41.2213542 L51.0390625,41.2213542 L51.0390625,45.25 C52.3932292,43.3203125 54.5091146,40.5442708 59.4348958,40.5442708 C65.5455729,40.5442708 70.1666667,44.5729167 70.1666667,53.2565104 L70.1666667,70.1666667 L70.1666667,70.1666667 Z" id="Shape" fill="#000000" fill-rule="nonzero"></path>
    </g>
</svg>