<?xml version="1.0" encoding="UTF-8"?>
<svg width="96px" height="96px" viewBox="0 0 96 96" version="1.1" xmlns="http://www.w3.org/2000/svg" xmlns:xlink="http://www.w3.org/1999/xlink">
    <!-- Generator: Sketch 59.1 (86144) - https://sketch.com -->
    <title>icon-github</title>
    <desc>Created with Sketch.</desc>
    <g id="icon-github" stroke="none" stroke-width="1" fill="none" fill-rule="evenodd">
        <path d="M48,12 C28.1196429,12 12,28.5375 12,48.9160714 C12,65.2285714 22.3178571,79.05 36.6214286,83.9357143 C36.8464286,83.9839286 37.0392857,84 37.2321429,84 C38.5660714,84 39.0803571,83.0196429 39.0803571,82.1678571 C39.0803571,81.2839286 39.0482143,78.9696429 39.0321429,75.8839286 C37.6821429,76.1892857 36.4767857,76.3178571 35.4,76.3178571 C28.4732143,76.3178571 26.8982143,70.9339286 26.8982143,70.9339286 C25.2589286,66.675 22.8964286,65.5339286 22.8964286,65.5339286 C19.7625,63.3321429 22.8803571,63.2678571 23.1214286,63.2678571 L23.1375,63.2678571 C26.7535714,63.5892857 28.65,67.0928571 28.65,67.0928571 C30.45,70.2428571 32.8607143,71.1267857 35.0142857,71.1267857 C36.7017857,71.1267857 38.2285714,70.5803571 39.1285714,70.1625 C39.45,67.7839286 40.3821429,66.1607143 41.4107143,65.2285714 C33.4232143,64.2964286 25.0178571,61.1303571 25.0178571,46.9875 C25.0178571,42.9535714 26.4160714,39.6589286 28.7142857,37.0875 C28.3446429,36.1553571 27.1071429,32.3946429 29.0678571,27.3160714 C29.0678571,27.3160714 29.325,27.2357143 29.8714286,27.2357143 C31.1732143,27.2357143 34.1142857,27.7339286 38.9678571,31.1089286 C41.8446429,30.2892857 44.9142857,29.8875 47.9839286,29.8714286 C51.0375,29.8875 54.1232143,30.2892857 57,31.1089286 C61.8535714,27.7339286 64.7946429,27.2357143 66.0964286,27.2357143 C66.6428571,27.2357143 66.9,27.3160714 66.9,27.3160714 C68.8607143,32.3946429 67.6232143,36.1553571 67.2535714,37.0875 C69.5517857,39.675 70.95,42.9696429 70.95,46.9875 C70.95,61.1625 62.5285714,64.2803571 54.5089286,65.1964286 C55.7946429,66.3375 56.9517857,68.5875 56.9517857,72.0267857 C56.9517857,76.9607143 56.9035714,80.9464286 56.9035714,82.1517857 C56.9035714,83.0196429 57.4017857,84 58.7357143,84 C58.9285714,84 59.1535714,83.9839286 59.3785714,83.9357143 C73.6982143,79.05 84,65.2125 84,48.9160714 C84,28.5375 67.8803571,12 48,12 Z" id="Path" fill="#000000" fill-rule="nonzero"></path>
    </g>
</svg>